<svg width="47" height="47" viewBox="0 0 47 47" fill="none" xmlns="http://www.w3.org/2000/svg">
<path d="M20.6994 4.20635C21.3736 1.22159 25.6264 1.22159 26.3006 4.20634C27.1941 8.16198 31.7335 10.0422 35.1623 7.87699C37.7496 6.24318 40.7568 9.25039 39.123 11.8377C36.9578 15.2665 38.838 19.8059 42.7937 20.6994C45.7784 21.3736 45.7784 25.6264 42.7937 26.3006C38.838 27.1941 36.9578 31.7335 39.123 35.1623C40.7568 37.7496 37.7496 40.7568 35.1623 39.123C31.7335 36.9578 27.1941 38.838 26.3006 42.7937C25.6264 45.7784 21.3736 45.7784 20.6994 42.7937C19.8059 38.838 15.2665 36.9578 11.8377 39.123C9.25039 40.7568 6.24318 37.7496 7.87698 35.1623C10.0422 31.7335 8.16199 27.1941 4.20635 26.3006C1.22159 25.6264 1.22159 21.3736 4.20634 20.6994C8.16198 19.8059 10.0422 15.2665 7.87699 11.8377C6.24318 9.25039 9.25039 6.24318 11.8377 7.87698C15.2665 10.0422 19.8059 8.16199 20.6994 4.20635Z" stroke="#01469C" stroke-width="3"/>
</svg>
