<svg width="49" height="49" viewBox="0 0 49 49" fill="none" xmlns="http://www.w3.org/2000/svg">
<path fill-rule="evenodd" clip-rule="evenodd" d="M15.2904 2.38791C16.3867 2.38791 17.2754 3.27663 17.2754 4.37292V6.35793H31.1705V4.37292C31.1705 3.27663 32.0592 2.38791 33.1555 2.38791C34.2518 2.38791 35.1405 3.27663 35.1405 4.37292V6.40694C40.1559 6.9049 44.073 11.1365 44.073 16.283V34.1481C44.073 39.6296 39.6294 44.0732 34.148 44.0732H14.2979C8.8164 44.0732 4.3728 39.6296 4.3728 34.1481V16.283C4.3728 11.1365 8.2899 6.9049 13.3054 6.40694V4.37292C13.3054 3.27663 14.1941 2.38791 15.2904 2.38791ZM8.68168 14.298H39.7642C38.9467 11.9851 36.7408 10.328 34.148 10.328H14.2979C11.705 10.328 9.49918 11.9851 8.68168 14.298ZM40.103 18.268H8.34283V34.1481C8.34283 37.437 11.009 40.1031 14.2979 40.1031H34.148C37.4369 40.1031 40.103 37.437 40.103 34.1481V18.268ZM12.3129 24.223C12.3129 23.1267 13.2016 22.238 14.2979 22.238H22.2379C23.3342 22.238 24.2229 23.1267 24.2229 24.223V32.1631C24.2229 33.2594 23.3342 34.1481 22.2379 34.1481H14.2979C13.2016 34.1481 12.3129 33.2594 12.3129 32.1631V24.223ZM20.2529 26.2081H16.2829V30.1781H20.2529V26.2081Z" fill="#01469C"/>
</svg>
